<?xml version="1.0" encoding="utf-8"?>
<!-- Generator: Adobe Illustrator 24.2.3, SVG Export Plug-In . SVG Version: 6.00 Build 0)  -->
<svg version="1.1" id="Calque_1" xmlns="http://www.w3.org/2000/svg" xmlns:xlink="http://www.w3.org/1999/xlink" x="0px" y="0px"
	 viewBox="0 0 64 64" style="enable-background:new 0 0 64 64;" xml:space="preserve">
<style type="text/css">
	.st0{
		fill: #f5f0ea;
		opacity: 1;
	}
</style>
<path class="st0" d="M35.3,13.8c-2.1-0.3-4.3-0.3-6.4,0c-0.2,0-0.3-0.1-0.1-0.3l3.3-2.6l3.3,2.6C35.5,13.7,35.5,13.8,35.3,13.8
	 M29.8,29.7c-0.1,0-0.2,0.1-0.2,0.2c0.7,0.5,1.1,1.7,2.6,1.7c1.4,0,1.9-1.2,2.6-1.7c0-0.1-0.1-0.2-0.2-0.2C33,30,31.4,30,29.8,29.7
	 M32.1,27.7c-0.4,0-0.5-0.2-0.8-0.2c-0.3,0-0.6,0.2-0.9,0.4c0,0.1,0.1,0.2,0.1,0.3c0.6,0.1,0.9,0.4,1.4,0.4c0.6,0,0.9-0.3,1.5-0.4
	c0.1-0.1,0.1-0.2,0.1-0.3c-0.3-0.3-0.5-0.3-0.9-0.4C32.6,27.6,32.6,27.7,32.1,27.7 M64,33.8c0,0.8-0.1,1.5-0.2,2.3
	c-3.6,0.6-5-2.6-8.6-2.5c0.3,0.8,0.4,1.6,0.5,2.4c3.1,0,4.3,2.8,7.7,2.5c-0.2,0.9-0.4,1.7-0.7,2.6c-2.7,0.3-3.7-2.4-6.7-2.3v2.1
	c2.6,0,3.5,2.4,6.1,2.3l-1,2.6c-1.8-0.1-2.5-2.4-5.2-2.2l-0.3,1.8c2.4-0.2,2.9,2,4.6,2.2c-0.4,0.8-0.9,1.6-1.5,2.3
	c-1-0.5-1.9-2.2-3.8-2.3l0.5-1.9c-2-0.1-3.8-0.9-5.3-2.2c0.5-3.1-4.2-6.1-4.2-8.4c0-2.4,1.2-3.8,1.2-7c-0.1-2.6-1.1-5-2.9-6.8
	c-0.3-0.3-0.7-0.6-1.1-0.9c1.8,2,2.8,4.4,2.9,7.1c0,3.1-1.5,4.7-1.5,7.5s4.1,5.3,4.1,8.2c0,1.1-0.3,2.3-1.5,4.4
	c1.5,1.6,3.6,2.6,5.8,2.9c0.4,0.1,0.8-0.2,0.9-0.6c0.2-0.3,0.3-0.7,0.4-1c1.7,0.1,2.5,1.6,3.4,2.2l-1.6,2c-0.6-0.7-1.5-1.9-2.7-2.2
	c-0.3,0.4-0.4,0.9-0.7,1.3c1,0.3,1.8,1.4,2.3,2L53,56c-0.4-0.8-1-1.4-1.8-1.9c-0.3,0.3-0.5,0.7-0.9,1c0.6,0.5,1.1,1.1,1.5,1.8
	l-2.4,1.7c-0.4-3.2-4.9-5.5-3.7-9.2c-0.5,0.8-0.8,1.6-0.9,2.5c0,2.7,2.9,4.9,3.2,7.6l-1.9,1c-0.1-3-3.2-6.2-3.2-8.7
	c0-2.7,3.6-5.5,3.6-8.7s-4.1-5.5-4.1-8.3s1.8-4.4,1.8-8.1c0-2.7-1.2-5.3-3.2-7.1L40,18.9c1.9,2.2,2.9,4.2,2.9,7.3c0,3.4-2,5.3-2,8.6
	s4,5.2,4,8.3s-3.8,5.7-3.8,9c0,2.9,3.3,5.8,3.3,9.3c-0.7,0.3-1.5,0.6-2.2,0.9c0.4-3.5-3.3-7.1-3.3-9.9c0-3.2,3.9-5.8,3.9-9.1
	s-4-5-4-8.4s2.5-5.4,2.5-9.1c0-2.8-1.4-5.5-3.6-7.3l-0.2-0.1c-0.2-0.2-0.3,0-0.3,0.2c1.5,1.9,2.4,4.3,2.3,6.7c0,3.5-2.8,6.3-2.8,9.6
	c0,4,3.8,5.1,3.8,8.4s-4,5.9-4,9.4c0,3.2,3.8,6.7,3.2,10.5l-2.3,0.5c0.7-4.6-3.1-7.9-3.1-10.9c0-3.2,4.2-6.1,4.2-9.4
	c0-3-3-4-3.4-7.1c0-0.4-0.3-0.7-0.8-0.7h-0.1c-0.9,0.3-1.7,0.4-2.6,0.5c-0.9-0.1-1.8-0.3-2.6-0.5c-0.4-0.1-0.8,0.2-0.9,0.6v0.1
	c-0.4,3.1-3.4,4.1-3.4,7.1c0,3.2,4.2,6.1,4.2,9.4c0,3-3.8,6.3-3.1,10.9L23.5,63c-0.6-3.7,3.2-7.3,3.2-10.5c0-3.5-4-6.1-4-9.4
	s3.8-4.4,3.8-8.4c0-3.4-2.8-6.2-2.8-9.6c-0.1-2.4,0.8-4.8,2.3-6.7c0.2-0.2,0-0.3-0.3-0.2l-0.2,0.1C23.3,20,22,22.8,22,25.6
	c0,3.8,2.5,5.7,2.5,9.1s-4,5-4,8.4s3.9,6.1,3.9,9.1c0,2.8-3.8,6.5-3.3,9.9c-0.8-0.2-1.5-0.5-2.2-0.9c0.1-3.4,3.4-6.3,3.4-9.3
	c0-3.2-3.8-5.8-3.8-9s4.5-4.9,4.5-8.2s-2-5.2-2-8.6c0-3.1,1-5,2.9-7.3c-0.4,0.2-0.8,0.4-1.1,0.8c-2,1.8-3.2,4.4-3.2,7.1
	c0,3.6,1.8,5.3,1.8,8.1s-4.1,5.1-4.1,8.3s3.6,6,3.6,8.7c0,2.5-3.1,5.7-3.2,8.7c-0.6-0.3-1.3-0.7-1.9-1c0.3-2.7,3.2-4.9,3.2-7.6
	c-0.1-0.9-0.3-1.8-0.9-2.5c1.2,3.8-3.2,6-3.7,9.2c-0.8-0.5-1.6-1.1-2.4-1.7c0.3-0.7,0.9-1.3,1.4-1.8c-0.3-0.3-0.6-0.7-0.9-1
	c-0.7,0.5-1.3,1.1-1.8,1.9c-0.7-0.6-1.3-1.2-1.9-1.8c0.6-0.7,1.3-1.8,2.3-2c-0.3-0.4-0.5-0.9-0.7-1.3c-1.2,0.3-2,1.5-2.7,2.2
	c-0.6-0.7-1.1-1.3-1.6-2C7.2,50.6,8,49.1,9.7,49c0.2,0.3,0.3,0.7,0.4,1c0.2,0.4,0.5,0.6,0.9,0.6c2.2-0.3,4.3-1.3,5.8-2.8
	c-1.2-2.2-1.5-3.3-1.5-4.4c0-2.9,4.1-5.4,4.1-8.2S18,30.7,18,27.6c0.1-2.7,1.1-5.2,2.9-7.2c-0.4,0.3-0.8,0.5-1.1,0.9
	c-1.8,1.8-2.8,4.3-2.9,6.8c0,3.2,1.2,4.6,1.2,7c0,2.2-4.7,5.3-4.2,8.4c-1.4,1.4-3.3,2.1-5.3,2.1l0.5,1.9c-2,0.1-2.8,1.8-3.8,2.3
	c-0.5-0.8-0.9-1.5-1.5-2.3c1.7-0.2,2.2-2.4,4.6-2.2c-0.1-0.6-0.2-1.2-0.3-1.8c-2.7-0.2-3.4,2.1-5.2,2.2c-0.4-0.9-0.8-1.7-1-2.6
	c2.6,0.1,3.4-2.3,6.1-2.3v-2.1c-3.2-0.1-4.1,2.6-6.7,2.3c-0.3-0.9-0.4-1.7-0.7-2.6C3.9,38.9,5.1,36,8.2,36l0.5-2.4
	c-3.7-0.2-5,3.1-8.6,2.5c-0.1-0.8-0.2-1.5-0.2-2.3c4.2,0.4,5.8-3,9.6-2.6c0.3-0.9,0.9-1.8,1.3-2.6C6,27.7,4.4,31.7-0.1,31.1
	C0.4,13.5,15.1-0.4,32.7,0.1c17,0.5,30.6,14.1,31.1,31.1c-4.4,0.6-6.1-3.4-10.9-2.6c0.5,0.9,0.9,1.7,1.3,2.6
	C58.2,30.7,59.9,34.2,64,33.8 M18.4,20.3c-2.6-1-5.4-0.7-7.7,0.9c-0.3-2.2-1.5-4.2-3.3-5.5c-0.1-0.1-0.3-0.1-0.4,0
	c-0.1,0.1-0.1,0.2-0.1,0.3c0.3,4.8-2.4,9-5.9,12.6c3.6,1,6.6-3.5,11.2-1.9C13.8,24.2,15.9,22,18.4,20.3 M32.1,17.4
	c-3,0-5.5,1.7-6.1,3.8c-0.1,0.2,0,0.3,0.2,0.2c0.6-0.3,1.2-0.3,1.8-0.3c1.1-0.1,2.1,0.4,2.9,1.2c0.3,1,0.3,2,0,3
	c-0.5-0.1-0.7-0.5-1.2-0.5s-0.9,0.3-1.7,0.3s-0.9-0.4-1.5-0.4s-0.8,0.7-0.8,1.4c0,3.3,3.1,7.9,6.2,7.9s6.2-4.5,6.2-7.9
	c0-0.8-0.2-1.4-0.9-1.5c-0.4,0.3-0.9,0.5-1.4,0.4c-0.9,0-1-0.3-1.5-0.3s-0.5,1.3-1.2,1.3c-0.4-1.2-0.5-2.6-0.1-3.8
	c0.8-0.9,1.8-1.3,2.9-1.2c0.6,0,1.2,0.1,1.8,0.3c0.2,0.1,0.3,0,0.2-0.2C37.5,19.1,35,17.4,32.1,17.4 M36.7,22.2
	c-0.8,0-1.5,0.3-2,0.8c-0.1,0.2-0.1,0.3,0,0.6c1.3-0.4,2.4-0.4,3,0.2c0.3-0.2,0.3-0.5,0.3-0.8C38,22.4,37.6,22.2,36.7,22.2
	 M26.4,23.7c0.6-0.6,2-0.6,3.3-0.1c0.1-0.7-1.1-1.5-2.4-1.5c-0.9,0-1.3,0.3-1.3,0.7C26.1,23.2,26.2,23.6,26.4,23.7 M46.9,12.5
	c-2.2,0.2-4.3,0.9-6,2.3c0.7-1.9,1.6-3.8,2.7-5.4c-2.7,0.2-5.3,1.4-7.3,3.2L34.9,9l3.2-2.8l-4.3-0.3l-1.7-3.9l-1.7,3.9l-4.3,0.3
	L29.3,9l-1.5,3.8c-2-2-4.5-3.1-7.3-3.2c1.1,1.7,2,3.5,2.7,5.4c-1.7-1.4-3.8-2.2-6.1-2.3c1.5,1.8,2.6,3.8,3.6,5.8
	c0.1,0.2,0.3,0.3,0.5,0.3h0.1c6.7-3.3,14.6-3.3,21.3,0c0.2,0.1,0.4,0.1,0.5-0.1v-0.1C44.2,16.2,45.4,14.3,46.9,12.5 M52,26.6
	c4.6-1.6,7.6,3,11.2,1.9c-3.4-3.7-6.2-7.8-5.9-12.6c0-0.2-0.1-0.3-0.3-0.3c-0.1,0-0.2,0-0.3,0.1c-1.8,1.3-3,3.3-3.3,5.5
	c-2.3-1.5-5.1-1.9-7.7-0.9C48.3,22,50.4,24.1,52,26.6"/>
</svg>
